<?xml version="1.0" encoding="UTF-8"?>
<svg width="30px" height="30px" viewBox="0 0 30 30" version="1.1" xmlns="http://www.w3.org/2000/svg" xmlns:xlink="http://www.w3.org/1999/xlink">
    <!-- Generator: Sketch 61 (89581) - https://sketch.com -->
    <!-- <title>7B10686E-FBC4-4897-8FED-49C33737CCEC</title> -->
    <!-- <desc>Created with Sketch.</desc> -->
    <g id="组件" stroke="none" stroke-width="1" fill="none" fill-rule="evenodd">
        <g id="icon_tuichu_nor">
            <g id="编组">
                <rect id="矩形" stroke="#979797" fill="#D8D8D8" opacity="0" x="0.5" y="0.5" width="29" height="29"></rect>
                <g transform="translate(2.000000, 2.000000)" fill="#FFFFFF" fill-rule="nonzero" id="路径">
                    <path d="M18.5803561,22.6256659 C16.8972501,23.5983051 14.9746008,24.1113801 13.0172809,24.1113801 C10.0450543,24.1113801 7.25248506,22.9561743 5.15017844,20.8566586 C3.04787182,18.7571429 1.89113039,15.9682809 1.89113039,13 C1.89113039,10.0317191 3.04787182,7.24285714 5.15017844,5.1433414 C7.25248506,3.04382567 10.0450543,1.88861985 13.0172809,1.88861985 C14.9746008,1.88861985 16.8972501,2.40169492 18.5803561,3.37433414 C19.0310755,3.63559322 19.6110222,3.48135593 19.8726286,3.03123487 C20.1342349,2.5811138 19.9797926,2.00193705 19.5290732,1.74067797 C17.5559938,0.601210654 15.3055487,0 13.0172809,0 C11.2616815,0 9.55651226,0.343099274 7.94905142,1.02300242 C6.40147638,1.67772397 5.00834366,2.6125908 3.81377963,3.80871671 C2.6192156,5.00169492 1.67995417,6.39297821 1.0243623,7.94164649 C0.343555355,9.54382567 0,11.2467312 0,13 C0,14.7532688 0.343555355,16.4561743 1.0243623,18.0615012 C1.67995417,19.6101695 2.6192156,20.9983051 3.81377963,22.1912833 C5.00834366,23.3842615 6.40147638,24.322276 7.95220331,24.9769976 C9.55651226,25.653753 11.2616815,26 13.0204328,26 C15.3087005,26 17.5591457,25.3987893 19.5290732,24.259322 C19.9797926,23.998063 20.1342349,23.4220339 19.8726286,22.9687651 C19.6110222,22.5186441 19.0310755,22.3644068 18.5803561,22.6256659 Z"></path>
                    <path d="M25.7588086,13.6415041 C25.7620032,13.6351328 25.7683924,13.6319472 25.771587,13.625576 C25.7779761,13.6192047 25.7843653,13.6128335 25.7875599,13.6064623 C25.7939491,13.600091 25.7971437,13.5937198 25.8035328,13.5841629 C25.8067274,13.5777917 25.8131166,13.5746061 25.8163112,13.5682348 C25.8227004,13.5618636 25.8290895,13.5523067 25.8322841,13.5427499 C25.8354787,13.5395643 25.8386733,13.533193 25.8418679,13.5300074 C25.8418679,13.5268218 25.8450625,13.5268218 25.8450625,13.5236362 C25.8482571,13.5172649 25.8546462,13.5108937 25.8578408,13.5045224 C25.8610354,13.5013368 25.86423,13.4949656 25.8674246,13.49178 C25.8738138,13.4822231 25.8770084,13.4726662 25.8833975,13.466295 C25.8865921,13.4631094 25.8897867,13.4567382 25.8897867,13.4535525 C25.8929813,13.4439957 25.8993705,13.4344388 25.9025651,13.4280676 C25.9057597,13.4216963 25.9089542,13.4185107 25.9089542,13.4121395 C25.9121488,13.4025826 25.9153434,13.3962114 25.9217326,13.3866545 C25.9249272,13.3802833 25.9281218,13.3739121 25.9281218,13.3707264 C25.9313164,13.3611696 25.9345109,13.3547983 25.9377055,13.3452415 C25.9409001,13.3388702 25.9440947,13.332499 25.9440947,13.3261278 C25.9472893,13.3197565 25.9504839,13.3101997 25.9536785,13.3038284 C25.9568731,13.2974572 25.9568731,13.291086 25.9600677,13.2815291 C25.9632622,13.2751579 25.9632622,13.265601 25.9664568,13.2592298 C25.9696514,13.2528585 25.9696514,13.2433017 25.972846,13.2369304 C25.9760406,13.2273736 25.9760406,13.2210023 25.9792352,13.2114455 C25.9792352,13.2050742 25.9824298,13.198703 25.9824298,13.1891461 C25.9856244,13.1795893 25.9856244,13.1700324 25.9888189,13.1604756 C25.9888189,13.1541043 25.9920135,13.1477331 25.9920135,13.1413619 C25.9952081,13.1286194 25.9952081,13.1190625 25.9952081,13.10632 L25.9952081,13.0967632 C26.0015973,13.0330508 26.0015973,12.9661528 25.9952081,12.9024404 L25.9952081,12.8992548 C25.9952081,12.8833267 25.9920135,12.8705842 25.9888189,12.8546561 C25.9888189,12.8514705 25.9888189,12.8482849 25.9856244,12.8450993 C25.9824298,12.8323568 25.9824298,12.8196143 25.9792352,12.8100575 C25.9792352,12.8068718 25.9760406,12.8005006 25.9760406,12.797315 C25.972846,12.7845725 25.9696514,12.7750156 25.9696514,12.7622732 C25.9696514,12.7590875 25.9664568,12.7559019 25.9664568,12.7495307 C25.9632622,12.7367882 25.9600677,12.7272314 25.9568731,12.7144889 C25.9568731,12.7113033 25.9536785,12.7081176 25.9536785,12.704932 C25.9504839,12.6921895 25.9472893,12.6826327 25.9409001,12.6698902 C25.9409001,12.6667046 25.9377055,12.6667046 25.9377055,12.663519 C25.9345109,12.6507765 25.9281218,12.638034 25.9217326,12.6252915 L25.9217326,12.6221059 C25.8738138,12.5137949 25.8067274,12.4086694 25.717279,12.3194721 L25.7108898,12.3131009 L19.6635347,6.27953809 C19.2897679,5.90682064 18.6827962,5.90682064 18.3090294,6.27953809 C17.9352626,6.65225553 17.9352626,7.25752318 18.3090294,7.63024063 L22.7335338,12.0455088 L9.9583764,12.0455088 C9.42807479,12.0455088 9,12.4723818 9,13.0011946 C9,13.5300074 9.42807479,13.9568804 9.9583764,13.9568804 L22.7335338,13.9568804 L18.3090294,18.368963 C17.9352626,18.7416804 17.9352626,19.3469481 18.3090294,19.7196655 C18.4975101,19.907617 18.7402988,20 18.9862821,20 C19.2322653,20 19.4782486,19.907617 19.6635347,19.7196655 L25.7236681,13.6765459 C25.7364465,13.666989 25.7460303,13.6542465 25.7588086,13.6415041 Z"></path>
                </g>
            </g>
        </g>
    </g>
</svg>