<?xml version="1.0" encoding="UTF-8"?>
<svg width="40px" height="40px" viewBox="0 0 40 40" version="1.1" xmlns="http://www.w3.org/2000/svg" xmlns:xlink="http://www.w3.org/1999/xlink">
    <!-- Generator: Sketch 61 (89581) - https://sketch.com -->
    <title>用户</title>
    <desc>Created with Sketch.</desc>
    <g id="页面-1" stroke="none" stroke-width="1" fill="none" fill-rule="evenodd">
        <g id="01首页" transform="translate(-1580.000000, -103.000000)" fill="#D4E5FA" fill-rule="nonzero">
            <g id="编组-6" transform="translate(1580.000000, 103.000000)">
                <g id="编组-5">
                    <g id="编组">
                        <g id="用户">
                            <path d="M20,0 C8.90909089,0 0,8.90909089 0,20 C0,31.0909091 8.90909093,40 20,40 C31.0909091,40 40,31.0909091 40,20 C40,8.90909093 31.0909091,0 20,0 Z M19.8181818,9.81818183 C22.5454545,9.81818183 24.7272727,12 24.7272727,14.5454545 C24.7272727,17.0909091 22.5454545,19.2727273 19.8181818,19.2727273 C17.0909091,19.2727273 14.9090909,17.0909091 14.9090909,14.5454545 C14.9090909,12 17.0909091,9.81818183 19.8181818,9.81818183 L19.8181818,9.81818183 Z M30.1818182,29.8181818 L9.81818183,29.8181818 C9.27272728,29.8181818 8.90909089,29.4545455 8.90909089,28.9090909 C8.90909089,24.9090909 12,21.8181818 16,21.8181818 L23.8181818,21.8181818 C27.8181818,21.8181818 30.9090909,25.0909091 31.0909091,28.9090909 C31.0909091,29.4545455 30.7272728,29.8181818 30.1818182,29.8181818 Z" id="Shape"></path>
                        </g>
                    </g>
                </g>
            </g>
        </g>
    </g>
</svg>